<mxfile host="app.diagrams.net" modified="2024-05-05T15:11:47.419Z" agent="Mozilla/5.0 (X11; Ubuntu; Linux x86_64; rv:125.0) Gecko/20100101 Firefox/125.0" etag="sLyOnKsVqYOePqRANQ2S" version="24.3.1" type="device">
  <diagram name="Page-1" id="GZBFxvJXoxZnEtgETqop">
    <mxGraphModel dx="478" dy="274" grid="1" gridSize="10" guides="1" tooltips="1" connect="1" arrows="1" fold="1" page="1" pageScale="1" pageWidth="827" pageHeight="1169" math="0" shadow="0">
      <root>
        <mxCell id="0" />
        <mxCell id="1" parent="0" />
        <mxCell id="wsGLkKjSFnASxqrC0h3r-1" value="&lt;div style=&quot;font-size: 13px;&quot;&gt;&lt;font style=&quot;font-size: 18px;&quot;&gt;E&lt;/font&gt;&lt;/div&gt;" style="ellipse;whiteSpace=wrap;html=1;fillColor=#f8cecc;strokeColor=#b85450;" parent="1" vertex="1">
          <mxGeometry x="310" y="110" width="60" height="60" as="geometry" />
        </mxCell>
        <mxCell id="wsGLkKjSFnASxqrC0h3r-2" value="&lt;div style=&quot;font-size: 18px;&quot;&gt;&lt;font style=&quot;font-size: 18px;&quot;&gt;I&lt;br&gt;&lt;/font&gt;&lt;/div&gt;" style="ellipse;whiteSpace=wrap;html=1;fillColor=#dae8fc;strokeColor=#6c8ebf;" parent="1" vertex="1">
          <mxGeometry x="460" y="110" width="60" height="60" as="geometry" />
        </mxCell>
        <mxCell id="wsGLkKjSFnASxqrC0h3r-19" value="" style="curved=1;endArrow=classic;html=1;rounded=0;strokeColor=none;endFill=1;entryX=1;entryY=0.5;entryDx=0;entryDy=0;" parent="1" edge="1">
          <mxGeometry width="50" height="50" relative="1" as="geometry">
            <mxPoint x="330" y="50" as="sourcePoint" />
            <mxPoint x="330" y="120" as="targetPoint" />
            <Array as="points">
              <mxPoint x="350" y="80" />
            </Array>
          </mxGeometry>
        </mxCell>
        <mxCell id="emWMifbc1njEtKN_GRqM-1" value="" style="curved=1;endArrow=classic;html=1;rounded=0;entryX=0.5;entryY=0;entryDx=0;entryDy=0;exitX=0.5;exitY=0;exitDx=0;exitDy=0;strokeWidth=3;" edge="1" parent="1" source="wsGLkKjSFnASxqrC0h3r-1" target="wsGLkKjSFnASxqrC0h3r-2">
          <mxGeometry width="50" height="50" relative="1" as="geometry">
            <mxPoint x="330.0032034355964" y="109.99679656440364" as="sourcePoint" />
            <mxPoint x="447.57679656440365" y="109.99679656440364" as="targetPoint" />
            <Array as="points">
              <mxPoint x="410" y="30" />
            </Array>
          </mxGeometry>
        </mxCell>
        <mxCell id="emWMifbc1njEtKN_GRqM-6" value="&lt;span dir=&quot;ltr&quot; role=&quot;presentation&quot; style=&quot;left: 256.781px; top: 369.485px; font-family: sans-serif; font-size: 13.0709px;&quot;&gt;W&lt;/span&gt;&lt;span dir=&quot;ltr&quot; role=&quot;presentation&quot; style=&quot;left: 269.126px; top: 374.496px; font-family: sans-serif; transform: scaleX(1.50995); font-size: 9.1496px;&quot;&gt;EI&lt;/span&gt;" style="edgeLabel;html=1;align=center;verticalAlign=middle;resizable=0;points=[];" vertex="1" connectable="0" parent="emWMifbc1njEtKN_GRqM-1">
          <mxGeometry x="0.25" y="-22" relative="1" as="geometry">
            <mxPoint as="offset" />
          </mxGeometry>
        </mxCell>
        <mxCell id="emWMifbc1njEtKN_GRqM-3" value="" style="curved=1;endArrow=none;html=1;rounded=0;entryX=0.5;entryY=1;entryDx=0;entryDy=0;exitX=0.5;exitY=1;exitDx=0;exitDy=0;strokeWidth=3;startArrow=oval;startFill=1;endFill=0;" edge="1" parent="1" source="wsGLkKjSFnASxqrC0h3r-1" target="wsGLkKjSFnASxqrC0h3r-2">
          <mxGeometry width="50" height="50" relative="1" as="geometry">
            <mxPoint x="330" y="170" as="sourcePoint" />
            <mxPoint x="448" y="170" as="targetPoint" />
            <Array as="points">
              <mxPoint x="410" y="250" />
            </Array>
          </mxGeometry>
        </mxCell>
        <mxCell id="emWMifbc1njEtKN_GRqM-7" value="&lt;span dir=&quot;ltr&quot; role=&quot;presentation&quot; style=&quot;left: 325.417px; top: 369.485px; font-size: 13.0709px; font-family: sans-serif;&quot;&gt;W&lt;/span&gt;&lt;span dir=&quot;ltr&quot; role=&quot;presentation&quot; style=&quot;left: 337.762px; top: 374.496px; font-size: 9.1496px; font-family: sans-serif; transform: scaleX(1.53476);&quot;&gt;IE&lt;/span&gt;" style="edgeLabel;html=1;align=center;verticalAlign=middle;resizable=0;points=[];" vertex="1" connectable="0" parent="emWMifbc1njEtKN_GRqM-3">
          <mxGeometry x="0.3351" y="26" relative="1" as="geometry">
            <mxPoint y="7" as="offset" />
          </mxGeometry>
        </mxCell>
        <mxCell id="emWMifbc1njEtKN_GRqM-4" value="" style="curved=1;endArrow=classic;html=1;rounded=0;strokeWidth=3;entryX=0;entryY=0;entryDx=0;entryDy=0;exitX=0.105;exitY=0.809;exitDx=0;exitDy=0;exitPerimeter=0;" edge="1" parent="1" source="wsGLkKjSFnASxqrC0h3r-1" target="wsGLkKjSFnASxqrC0h3r-1">
          <mxGeometry width="50" height="50" relative="1" as="geometry">
            <mxPoint x="310" y="150" as="sourcePoint" />
            <mxPoint x="320" y="100" as="targetPoint" />
            <Array as="points">
              <mxPoint x="280" y="170" />
              <mxPoint x="280" y="110" />
            </Array>
          </mxGeometry>
        </mxCell>
        <mxCell id="emWMifbc1njEtKN_GRqM-8" value="&lt;span dir=&quot;ltr&quot; role=&quot;presentation&quot; style=&quot;left: 185.312px; top: 369.485px; font-size: 13.0709px; font-family: sans-serif;&quot;&gt;W&lt;/span&gt;&lt;span dir=&quot;ltr&quot; role=&quot;presentation&quot; style=&quot;left: 197.658px; top: 374.496px; font-size: 9.1496px; font-family: sans-serif; transform: scaleX(1.37038);&quot;&gt;EE&lt;/span&gt;" style="edgeLabel;html=1;align=center;verticalAlign=middle;resizable=0;points=[];" vertex="1" connectable="0" parent="emWMifbc1njEtKN_GRqM-4">
          <mxGeometry x="0.0229" y="1" relative="1" as="geometry">
            <mxPoint as="offset" />
          </mxGeometry>
        </mxCell>
        <mxCell id="emWMifbc1njEtKN_GRqM-15" value="&lt;span dir=&quot;ltr&quot; role=&quot;presentation&quot; style=&quot;left: 549.775px; top: 369.485px; font-size: 13.0709px; font-family: sans-serif;&quot;&gt;θ&lt;/span&gt;&lt;span dir=&quot;ltr&quot; role=&quot;presentation&quot; style=&quot;left: 555.911px; top: 374.496px; font-size: 9.1496px; font-family: sans-serif;&quot;&gt;I&lt;/span&gt;&lt;span dir=&quot;ltr&quot; role=&quot;presentation&quot; style=&quot;left: 560.544px; top: 374.496px; font-size: 9.1496px; font-family: sans-serif;&quot;&gt; &lt;/span&gt;" style="text;html=1;align=center;verticalAlign=middle;resizable=0;points=[];autosize=1;strokeColor=none;fillColor=none;" vertex="1" parent="1">
          <mxGeometry x="520" y="50" width="30" height="30" as="geometry" />
        </mxCell>
        <mxCell id="emWMifbc1njEtKN_GRqM-22" value="" style="shape=image;imageAspect=0;aspect=fixed;verticalLabelPosition=bottom;verticalAlign=top;image=https://static.thenounproject.com/png/385870-200.png;" vertex="1" parent="1">
          <mxGeometry x="520" y="160" width="50" height="50" as="geometry" />
        </mxCell>
        <mxCell id="emWMifbc1njEtKN_GRqM-24" value="" style="endArrow=classic;html=1;rounded=0;entryX=1;entryY=1;entryDx=0;entryDy=0;" edge="1" parent="1" target="wsGLkKjSFnASxqrC0h3r-2">
          <mxGeometry width="50" height="50" relative="1" as="geometry">
            <mxPoint x="540" y="180" as="sourcePoint" />
            <mxPoint x="590" y="130" as="targetPoint" />
          </mxGeometry>
        </mxCell>
        <mxCell id="emWMifbc1njEtKN_GRqM-25" value="" style="endArrow=classic;html=1;rounded=0;entryX=0.798;entryY=0.078;entryDx=0;entryDy=0;entryPerimeter=0;" edge="1" parent="1" target="wsGLkKjSFnASxqrC0h3r-2">
          <mxGeometry width="50" height="50" relative="1" as="geometry">
            <mxPoint x="530" y="70" as="sourcePoint" />
            <mxPoint x="510" y="120" as="targetPoint" />
          </mxGeometry>
        </mxCell>
        <mxCell id="emWMifbc1njEtKN_GRqM-26" value="&lt;span dir=&quot;ltr&quot; role=&quot;presentation&quot; style=&quot;left: 492.691px; top: 369.485px; font-size: 13.0709px; font-family: sans-serif;&quot;&gt;θ&lt;/span&gt;&lt;span dir=&quot;ltr&quot; role=&quot;presentation&quot; style=&quot;left: 498.828px; top: 374.496px; font-size: 9.1496px; font-family: sans-serif;&quot;&gt;E&lt;/span&gt;" style="text;html=1;align=center;verticalAlign=middle;resizable=0;points=[];autosize=1;strokeColor=none;fillColor=none;" vertex="1" parent="1">
          <mxGeometry x="280" y="50" width="40" height="30" as="geometry" />
        </mxCell>
        <mxCell id="emWMifbc1njEtKN_GRqM-27" value="" style="shape=image;imageAspect=0;aspect=fixed;verticalLabelPosition=bottom;verticalAlign=top;image=https://static.thenounproject.com/png/385870-200.png;" vertex="1" parent="1">
          <mxGeometry x="260" y="170" width="50" height="50" as="geometry" />
        </mxCell>
        <mxCell id="emWMifbc1njEtKN_GRqM-28" value="" style="endArrow=classic;html=1;rounded=0;entryX=0.217;entryY=0.939;entryDx=0;entryDy=0;entryPerimeter=0;" edge="1" parent="1" target="wsGLkKjSFnASxqrC0h3r-1">
          <mxGeometry width="50" height="50" relative="1" as="geometry">
            <mxPoint x="290" y="190" as="sourcePoint" />
            <mxPoint x="324.6200000000001" y="169.49" as="targetPoint" />
          </mxGeometry>
        </mxCell>
        <mxCell id="emWMifbc1njEtKN_GRqM-29" value="" style="endArrow=classic;html=1;rounded=0;entryX=0.27;entryY=0.045;entryDx=0;entryDy=0;entryPerimeter=0;" edge="1" parent="1" target="wsGLkKjSFnASxqrC0h3r-1">
          <mxGeometry width="50" height="50" relative="1" as="geometry">
            <mxPoint x="310" y="70" as="sourcePoint" />
            <mxPoint x="320" y="100" as="targetPoint" />
          </mxGeometry>
        </mxCell>
        <mxCell id="emWMifbc1njEtKN_GRqM-31" value="" style="endArrow=classic;html=1;rounded=0;entryX=1;entryY=0.5;entryDx=0;entryDy=0;dashed=1;" edge="1" parent="1" target="wsGLkKjSFnASxqrC0h3r-1">
          <mxGeometry width="50" height="50" relative="1" as="geometry">
            <mxPoint x="420" y="139" as="sourcePoint" />
            <mxPoint x="440" y="90" as="targetPoint" />
          </mxGeometry>
        </mxCell>
        <mxCell id="emWMifbc1njEtKN_GRqM-33" value="DBS" style="edgeLabel;html=1;align=center;verticalAlign=middle;resizable=0;points=[];" vertex="1" connectable="0" parent="emWMifbc1njEtKN_GRqM-31">
          <mxGeometry x="-0.4131" relative="1" as="geometry">
            <mxPoint x="9" y="1" as="offset" />
          </mxGeometry>
        </mxCell>
      </root>
    </mxGraphModel>
  </diagram>
</mxfile>
